<?xml version="1.0" standalone="no"?>
<!DOCTYPE svg PUBLIC "-//W3C//DTD SVG 20010904//EN"
 "http://www.w3.org/TR/2001/REC-SVG-20010904/DTD/svg10.dtd">
<svg version="1.0" xmlns="http://www.w3.org/2000/svg"
 width="8000.000000pt" height="8000.000000pt" viewBox="0 0 8000.000000 8000.000000"
 preserveAspectRatio="xMidYMid meet">

<g transform="translate(0.000000,8000.000000) scale(0.100000,-0.100000)"
fill="#000000" stroke="none">
<path d="M15574 57603 c4 -21 15 -81 26 -133 10 -52 29 -165 40 -250 13 -100
28 -168 40 -193 12 -22 20 -57 20 -85 0 -72 37 -284 60 -342 11 -28 20 -70 20
-93 0 -61 36 -224 56 -254 10 -17 19 -61 25 -127 9 -117 19 -175 53 -306 14
-52 32 -135 41 -183 9 -48 27 -117 41 -153 13 -35 24 -81 24 -102 1 -52 37
-211 55 -238 8 -13 15 -37 15 -54 0 -51 40 -212 60 -246 12 -18 20 -49 20 -75
0 -60 35 -200 60 -241 12 -20 20 -51 20 -78 0 -61 36 -206 60 -245 11 -18 20
-50 20 -71 0 -41 44 -220 59 -238 5 -6 14 -42 21 -81 7 -38 25 -108 40 -155
16 -47 36 -118 45 -159 9 -41 25 -99 36 -130 10 -31 28 -93 39 -139 11 -46 29
-104 39 -130 11 -26 29 -86 40 -134 11 -48 27 -103 35 -123 8 -19 25 -72 37
-118 12 -45 31 -100 41 -122 11 -22 28 -80 38 -129 11 -49 30 -112 44 -140 14
-28 28 -71 32 -96 3 -25 24 -94 45 -155 21 -60 42 -128 48 -151 6 -23 22 -53
36 -68 19 -21 25 -38 25 -74 0 -27 13 -83 31 -132 17 -47 41 -119 54 -160 13
-41 51 -154 85 -250 33 -96 70 -202 80 -235 11 -33 29 -73 40 -90 11 -16 20
-40 20 -51 0 -23 25 -100 88 -269 22 -60 56 -153 75 -205 20 -52 56 -149 82
-215 26 -66 62 -160 80 -210 53 -140 176 -448 235 -590 23 -55 59 -143 80
-195 21 -52 59 -142 85 -200 25 -58 57 -132 71 -166 31 -75 132 -184 224 -241
95 -58 246 -143 255 -143 5 0 29 -13 55 -30 26 -16 73 -39 105 -50 32 -11 66
-26 74 -34 9 -8 43 -27 76 -43 33 -17 75 -38 93 -47 18 -10 61 -25 95 -32 36
-9 72 -25 87 -39 35 -33 206 -112 259 -119 25 -3 54 -15 66 -26 19 -18 172
-89 228 -106 12 -3 74 -26 137 -51 249 -97 935 -317 1095 -353 50 -10 106 -26
125 -34 20 -8 91 -26 159 -40 67 -15 131 -31 141 -36 10 -6 85 -23 167 -40 81
-16 169 -36 195 -44 26 -8 98 -24 160 -36 62 -12 151 -30 198 -41 142 -32 261
-49 340 -49 53 0 88 -6 119 -20 56 -26 182 -48 341 -60 69 -5 143 -16 165 -24
38 -13 181 -34 400 -56 133 -14 285 -41 285 -52 0 -4 -15 -8 -33 -8 -89 0
-445 -51 -482 -69 -34 -16 -70 -20 -230 -25 -249 -7 -594 -40 -634 -60 -23
-12 -62 -16 -168 -16 -76 0 -176 -4 -223 -10 -47 -5 -161 -14 -255 -20 -130
-9 -178 -16 -205 -30 -31 -17 -67 -19 -350 -23 -405 -6 -914 -25 -1055 -40
-60 -7 -146 -9 -190 -6 -44 4 -241 9 -437 13 -301 5 -358 4 -358 -8 0 -15 19
-53 222 -429 77 -143 168 -305 204 -360 35 -56 76 -127 90 -157 14 -30 41 -80
59 -110 18 -30 58 -100 90 -155 32 -55 81 -138 110 -185 29 -47 72 -119 97
-160 175 -292 628 -987 782 -1200 38 -52 94 -131 124 -175 29 -44 82 -117 115
-163 393 -531 629 -833 801 -1024 53 -58 96 -110 96 -115 0 -13 132 -168 273
-320 73 -78 148 -161 167 -184 287 -347 969 -1022 1469 -1454 32 -27 106 -92
165 -143 59 -51 120 -99 134 -105 15 -7 51 -36 80 -65 114 -113 514 -417 914
-694 l141 -98 76 6 c122 9 580 54 646 64 33 5 119 16 190 25 72 8 164 22 205
30 41 8 138 24 215 35 77 11 176 29 220 40 44 11 111 24 149 30 106 17 208 40
221 50 6 5 54 16 107 24 112 18 343 77 443 112 39 14 117 38 175 54 110 29
310 99 351 121 13 7 69 28 124 46 55 19 142 54 193 78 50 24 92 40 92 36 0 -4
-33 -38 -72 -76 -40 -38 -103 -97 -139 -132 -37 -35 -85 -76 -107 -91 -22 -15
-93 -68 -158 -117 -111 -84 -188 -139 -339 -239 -33 -21 -70 -51 -82 -66 -14
-17 -40 -32 -67 -39 -25 -6 -61 -25 -80 -41 -18 -17 -39 -30 -45 -30 -6 0
-107 -49 -224 -109 -286 -148 -583 -274 -912 -388 -71 -25 -134 -49 -139 -54
-5 -4 1 -5 12 -2 14 3 24 0 28 -10 6 -17 265 -165 505 -290 96 -49 167 -80
208 -88 42 -8 67 -19 79 -34 27 -35 109 -88 217 -143 55 -28 217 -111 360
-186 239 -125 569 -291 985 -495 90 -45 176 -81 191 -81 16 0 44 -14 67 -34
25 -20 57 -36 82 -40 25 -4 50 -16 64 -31 36 -39 984 -498 1082 -524 23 -6 53
-20 67 -31 14 -12 79 -46 144 -76 65 -31 163 -78 218 -104 205 -98 384 -180
394 -180 6 0 28 -10 49 -23 40 -24 102 -53 424 -202 115 -52 211 -95 215 -95
3 0 54 -23 112 -52 139 -68 293 -136 361 -160 30 -11 66 -27 80 -37 29 -19 64
-36 670 -316 245 -114 513 -239 595 -280 83 -40 274 -132 425 -205 151 -73
280 -136 285 -140 6 -4 64 -35 130 -70 66 -34 147 -77 180 -95 33 -18 103 -55
155 -82 315 -165 615 -337 884 -507 93 -58 120 -67 130 -41 3 8 14 15 24 15
10 0 27 7 38 15 12 9 43 14 85 15 78 0 208 22 294 50 33 11 98 31 145 46 163
52 338 156 408 244 73 92 87 131 84 245 -3 120 -32 269 -65 333 -13 26 -27 72
-30 102 -6 59 -14 83 -52 145 -18 30 -25 54 -25 96 0 57 -29 168 -58 224 -8
16 -21 56 -29 88 -7 33 -24 72 -37 88 -15 18 -28 52 -36 96 -6 37 -23 88 -37
112 -16 27 -28 69 -34 114 -9 68 -102 366 -136 430 -8 17 -21 59 -29 93 -7 34
-24 84 -38 112 -14 27 -32 82 -40 122 -9 40 -29 100 -46 134 -16 35 -30 73
-30 87 0 13 -16 71 -35 129 -19 58 -80 245 -136 415 -56 171 -108 321 -115
335 -7 14 -25 69 -39 123 -14 54 -52 176 -84 270 -33 95 -77 232 -100 305
l-42 132 -497 0 c-273 -1 -544 -5 -601 -10 -200 -18 -372 -77 -521 -178 -49
-33 -91 -70 -99 -86 -15 -32 -131 -150 -173 -175 -29 -18 -103 -113 -137 -176
-12 -22 -31 -55 -43 -74 -12 -18 -25 -56 -29 -84 -5 -27 -20 -67 -35 -89 -50
-72 -110 -230 -125 -333 -6 -38 -17 -80 -25 -92 -43 -68 -74 -625 -49 -883 23
-230 26 -214 -46 -234 -33 -9 -64 -14 -69 -11 -8 5 -119 333 -140 415 -6 25
-21 58 -33 75 -12 17 -24 54 -28 86 -4 31 -43 173 -87 315 -44 142 -144 464
-222 714 -77 250 -163 523 -190 605 -27 83 -65 204 -85 270 -37 123 -177 573
-290 930 -34 110 -89 283 -120 385 -128 414 -198 640 -230 740 -24 74 -30 108
-23 117 14 18 113 47 132 40 9 -4 20 -17 26 -31 5 -13 18 -33 30 -43 11 -11
26 -43 33 -70 15 -55 88 -191 123 -226 11 -12 32 -47 46 -77 14 -30 46 -82 72
-115 25 -33 70 -94 99 -135 128 -178 467 -524 662 -676 330 -256 730 -466
1095 -573 163 -48 243 -62 397 -70 85 -5 148 -12 156 -20 28 -22 182 -31 560
-31 301 0 377 3 377 13 0 21 -86 269 -108 312 -11 22 -24 58 -27 80 -7 43 -97
321 -171 530 -25 72 -59 170 -75 220 -17 49 -34 94 -38 100 -5 5 -21 54 -35
108 -14 54 -36 126 -49 160 -30 79 -81 230 -111 330 -13 43 -31 86 -40 96 -9
9 -23 51 -32 92 -9 41 -30 98 -45 128 -16 30 -29 66 -29 81 0 39 -29 129 -51
159 -11 15 -24 55 -30 90 -5 35 -25 103 -43 150 -18 47 -39 110 -46 139 -8 34
-23 65 -41 83 -24 24 -29 38 -29 77 0 50 -12 91 -85 297 -25 72 -55 157 -66
190 -11 33 -29 69 -40 81 -23 24 -39 75 -39 122 0 51 -30 143 -56 175 -16 19
-24 41 -24 66 0 39 -27 129 -54 179 -8 15 -20 54 -26 87 -21 102 -70 225 -94
235 -11 5 -196 16 -411 25 -214 8 -406 17 -425 20 -19 3 -183 12 -365 20 -181
9 -346 18 -365 20 -82 10 -577 26 -615 20 -53 -9 -173 -74 -249 -135 -97 -77
-309 -301 -401 -423 -124 -164 -213 -289 -282 -392 -44 -66 -113 -168 -152
-228 -40 -59 -77 -122 -83 -140 -6 -17 -23 -46 -37 -64 -48 -59 -99 -148 -111
-193 -6 -25 -24 -61 -39 -80 -14 -19 -34 -47 -43 -62 -10 -14 -28 -38 -42 -53
-14 -15 -32 -51 -41 -81 -8 -29 -21 -57 -29 -61 -24 -14 -109 -147 -123 -193
-7 -24 -24 -56 -37 -70 -13 -14 -35 -46 -50 -72 -41 -70 -45 -72 -109 -44
l-55 25 -4 298 c-1 164 -1 715 0 1226 l4 927 2256 0 c3643 1 4935 1 4974 0 36
0 37 -1 55 -56 19 -63 13 -74 -43 -74 -17 0 -44 -7 -61 -15 -22 -11 -59 -14
-139 -13 -127 2 -257 -22 -311 -59 -18 -13 -48 -23 -66 -23 -41 0 -96 -26
-185 -84 -105 -69 -164 -142 -223 -276 -35 -79 -41 -104 -46 -183 -6 -101 10
-247 34 -311 8 -23 19 -68 23 -102 16 -114 68 -306 125 -464 13 -36 29 -85 35
-110 22 -88 112 -355 125 -370 7 -8 18 -33 25 -55 7 -22 25 -67 41 -100 17
-37 32 -90 37 -136 5 -41 30 -138 55 -215 116 -351 239 -718 272 -809 42 -116
38 -105 160 -470 133 -399 154 -463 181 -530 13 -33 37 -103 53 -155 63 -208
261 -774 276 -790 9 -10 23 -46 31 -79 7 -34 23 -80 35 -102 11 -22 27 -75 35
-117 8 -42 26 -100 39 -129 14 -29 30 -76 35 -105 13 -69 119 -376 141 -408 9
-14 20 -46 23 -72 5 -42 145 -456 195 -574 11 -27 25 -69 32 -94 14 -55 104
-302 126 -344 9 -17 22 -56 29 -87 16 -70 106 -313 139 -380 14 -27 25 -59 25
-72 0 -13 15 -54 34 -93 19 -38 37 -85 41 -104 4 -19 22 -68 41 -109 19 -41
34 -81 34 -90 0 -9 16 -52 36 -96 19 -44 44 -104 55 -134 10 -29 28 -68 39
-86 11 -18 28 -57 36 -87 31 -105 142 -285 226 -364 155 -147 408 -287 593
-329 39 -9 87 -22 108 -30 68 -27 304 -65 401 -65 95 0 285 22 345 39 19 6 42
18 51 26 12 11 50 19 108 25 192 18 469 163 661 345 131 125 208 280 449 910
144 375 393 1070 413 1151 7 27 18 62 26 78 9 16 28 65 43 110 15 45 65 187
109 316 102 293 275 802 421 1240 62 184 120 358 130 385 44 125 130 394 130
409 0 9 7 27 15 39 18 28 131 357 141 411 4 22 15 54 25 70 10 17 81 222 158
456 77 234 146 439 152 455 23 64 383 1148 426 1285 127 405 167 558 178 673
4 37 14 82 23 100 13 25 17 61 17 172 0 120 -3 151 -24 215 -29 90 -54 143
-93 192 -36 46 -144 128 -169 128 -10 0 -33 13 -51 28 -36 31 -86 52 -127 52
-14 0 -45 11 -68 24 -61 35 -179 56 -306 55 -83 -1 -113 3 -132 15 -13 9 -45
16 -70 16 -40 0 -45 2 -45 23 0 12 9 40 19 63 17 38 23 42 75 52 39 8 80 9
130 2 43 -5 1470 -9 3537 -9 1905 0 3481 -1 3502 -1 l37 0 0 -1229 0 -1230
-54 -15 c-30 -9 -61 -13 -69 -10 -8 3 -30 33 -48 67 -44 84 -250 443 -280 489
-13 20 -36 58 -51 85 -16 26 -32 55 -37 63 -5 8 -33 56 -62 105 -54 91 -73
119 -140 210 -20 28 -40 61 -44 75 -12 40 -105 179 -175 262 -76 91 -102 128
-130 186 -11 23 -61 95 -111 160 -297 382 -550 590 -728 600 -62 4 -695 -26
-1041 -48 -85 -6 -252 -14 -370 -20 -655 -30 -695 -32 -717 -46 -34 -21 -49
-50 -77 -144 -14 -47 -67 -204 -117 -350 -49 -146 -103 -308 -120 -360 -16
-52 -52 -160 -79 -240 -28 -80 -59 -176 -71 -215 -11 -38 -27 -90 -36 -115 -8
-25 -27 -79 -40 -120 -14 -41 -32 -91 -40 -110 -23 -52 -143 -417 -143 -433 0
-8 -11 -40 -25 -70 -14 -30 -32 -88 -41 -127 -8 -39 -21 -81 -29 -93 -15 -24
-81 -209 -125 -352 -16 -49 -53 -160 -84 -245 -31 -85 -65 -193 -77 -238 -11
-46 -32 -107 -45 -135 -13 -29 -29 -77 -35 -107 -6 -30 -17 -63 -24 -75 -8
-11 -41 -105 -75 -210 -34 -104 -70 -212 -80 -240 -48 -124 -120 -342 -120
-362 0 -17 7 -23 34 -28 18 -4 217 -5 442 -3 340 3 417 7 454 20 25 9 80 16
123 17 43 1 131 12 196 25 142 29 375 101 391 121 7 8 21 15 31 15 116 0 642
280 791 421 33 33 69 59 79 59 21 0 86 51 253 199 129 114 385 399 447 496 21
33 49 71 63 85 77 80 264 393 335 563 11 26 26 47 34 47 28 0 137 -42 137 -53
0 -7 -13 -52 -29 -102 -16 -49 -50 -160 -76 -245 -26 -85 -57 -184 -70 -220
-29 -83 -90 -286 -125 -415 -14 -55 -33 -113 -42 -130 -9 -16 -25 -66 -36
-110 -11 -44 -28 -97 -36 -118 -9 -20 -27 -83 -41 -140 -13 -56 -33 -122 -44
-147 -11 -25 -40 -112 -66 -195 -81 -262 -115 -367 -150 -475 -19 -58 -43
-141 -54 -186 -10 -44 -26 -94 -34 -110 -18 -35 -57 -182 -57 -214 0 -12 -13
-49 -29 -83 -17 -34 -35 -91 -41 -127 -7 -36 -21 -82 -32 -104 -28 -53 -38
-90 -48 -168 -4 -39 -16 -78 -27 -95 -23 -32 -53 -116 -53 -147 0 -12 -12 -45
-25 -75 -14 -30 -34 -86 -45 -125 -10 -39 -33 -111 -50 -160 -19 -53 -34 -117
-37 -163 -4 -54 -12 -81 -27 -101 -20 -25 -43 -87 -137 -370 -38 -114 -42
-123 -62 -118 -12 4 -41 9 -65 13 -23 3 -44 9 -47 12 -2 4 3 97 10 207 17 238
19 518 4 652 -40 368 -193 779 -387 1042 -149 202 -363 362 -582 435 -169 56
-181 57 -792 62 -557 5 -567 4 -577 -15 -6 -11 -31 -87 -55 -169 -25 -81 -68
-213 -96 -293 -28 -80 -58 -172 -66 -205 -9 -33 -28 -94 -44 -135 -15 -41
-135 -399 -265 -795 -131 -396 -304 -920 -385 -1165 -235 -710 -244 -739 -255
-840 -4 -38 -17 -82 -30 -105 -35 -62 -44 -125 -47 -325 -3 -185 -3 -185 24
-230 48 -81 100 -124 276 -226 120 -69 337 -133 607 -179 55 -10 115 -22 133
-27 30 -9 42 -4 185 84 239 148 370 224 732 423 414 228 1162 595 2020 992 77
35 194 91 260 123 66 32 143 68 172 79 45 17 130 60 233 115 14 8 43 19 65 26
35 11 205 86 480 213 50 23 106 51 125 62 19 12 58 29 85 40 28 10 114 49 193
87 78 37 145 68 149 68 12 0 532 245 1203 565 107 51 287 137 400 190 176 84
1355 673 1570 785 41 21 178 92 304 157 282 145 370 192 427 225 25 15 112 60
194 102 251 127 458 242 489 272 16 16 38 34 50 41 20 11 19 12 -15 27 -20 8
-87 31 -150 50 -63 19 -159 54 -214 76 -55 23 -136 57 -180 75 -199 81 -537
251 -790 398 -176 102 -434 281 -619 430 -108 87 -351 300 -362 318 -14 24 9
18 92 -24 49 -25 127 -58 174 -75 47 -16 110 -41 140 -54 87 -39 428 -147 685
-218 162 -45 299 -77 495 -116 69 -14 161 -33 205 -44 44 -10 143 -28 220 -40
77 -12 208 -32 290 -46 363 -59 1069 -133 1115 -116 51 18 560 390 584 426 9
15 25 26 35 26 35 0 551 413 701 561 36 35 75 69 87 76 36 19 176 139 379 324
376 345 1027 1014 1269 1304 28 33 66 78 87 100 123 135 318 376 318 393 0 5
26 36 58 68 69 71 174 197 265 319 37 50 91 119 121 155 55 67 235 312 339
460 33 47 84 117 113 156 98 131 393 567 625 924 43 66 307 489 339 545 10 17
34 57 54 89 20 33 36 73 36 89 0 20 10 39 34 61 36 33 72 87 118 176 16 30 48
89 73 130 24 41 61 107 83 145 21 39 79 140 128 225 50 85 114 202 143 260 30
58 73 141 97 186 24 45 44 85 44 90 0 5 -262 9 -622 10 -427 0 -731 6 -966 17
-188 9 -414 17 -502 17 -87 0 -171 5 -186 10 -15 6 -59 15 -98 20 -61 8 -504
40 -736 54 -41 2 -115 11 -165 19 -83 15 -468 52 -630 61 -38 2 -97 11 -130
19 -57 15 -360 53 -513 64 -147 11 -87 26 248 63 195 22 353 44 423 59 23 5
87 15 142 21 244 28 960 161 1125 209 36 11 117 29 180 40 63 12 133 31 156
41 22 11 51 20 65 20 40 1 199 38 233 56 17 8 59 20 94 25 34 5 113 25 175 44
255 80 307 96 402 124 138 41 570 191 680 236 50 20 128 52 175 70 81 31 186
75 385 163 136 60 425 203 565 280 329 181 407 225 435 247 31 23 39 40 202
430 30 72 73 173 95 225 22 52 53 133 69 179 17 46 38 100 48 120 10 20 28 65
39 101 11 36 34 94 51 130 17 36 31 76 31 89 0 14 7 32 15 41 8 9 30 56 48
106 19 49 61 159 94 244 33 85 66 178 73 205 7 28 17 55 22 62 9 11 30 67 130
348 182 514 424 1250 582 1775 26 85 58 189 71 230 13 41 33 111 45 155 12 44
37 130 55 190 18 61 36 140 39 176 4 37 17 84 28 105 27 51 48 121 48 164 0
20 9 53 19 73 11 21 29 77 41 125 12 48 32 121 45 162 12 41 31 111 40 155 10
44 24 98 32 119 22 60 53 197 53 234 0 18 8 49 19 70 21 41 61 208 61 253 0
15 11 58 25 94 13 36 33 112 44 168 11 56 34 156 51 222 17 66 34 165 39 221
6 78 12 107 29 130 13 18 29 70 42 138 11 60 29 144 40 185 10 42 26 119 35
171 9 52 27 140 40 195 14 55 33 161 44 235 11 74 24 147 30 162 17 45 41 196
51 327 6 74 16 136 25 155 9 17 23 73 32 123 15 94 12 163 -9 163 -22 0 -520
-310 -534 -331 -3 -5 -20 -15 -37 -23 -27 -11 -217 -124 -607 -358 -72 -44
-164 -97 -510 -294 -85 -48 -227 -127 -315 -174 -88 -48 -249 -136 -358 -196
-109 -60 -303 -163 -431 -229 -127 -66 -238 -124 -246 -129 -17 -12 -709 -356
-715 -356 -2 0 -136 -65 -297 -144 -392 -192 -766 -365 -1338 -618 -124 -55
-250 -112 -280 -127 -30 -16 -72 -33 -92 -40 -20 -7 -53 -23 -71 -36 -19 -12
-50 -26 -68 -30 -18 -4 -54 -16 -79 -27 -25 -11 -90 -39 -145 -63 -275 -116
-395 -168 -450 -194 -33 -16 -85 -37 -115 -46 -30 -10 -65 -23 -77 -31 -12 -8
-57 -27 -100 -43 -84 -32 -167 -65 -278 -111 -139 -57 -574 -229 -735 -290
-41 -16 -122 -48 -180 -70 -112 -44 -259 -101 -405 -155 -49 -19 -144 -55
-210 -81 -66 -25 -156 -59 -200 -74 -44 -16 -136 -49 -205 -75 -69 -25 -150
-55 -180 -66 -30 -11 -82 -33 -115 -49 -33 -16 -87 -35 -120 -43 -33 -9 -136
-42 -230 -75 -93 -32 -289 -100 -435 -151 -146 -51 -301 -105 -345 -121 -44
-16 -161 -56 -260 -90 -99 -33 -245 -83 -325 -110 -80 -28 -181 -62 -226 -75
-123 -37 -346 -114 -358 -125 -7 -5 -43 -15 -82 -23 -38 -8 -137 -36 -219 -62
-426 -134 -675 -215 -715 -234 -25 -11 -56 -21 -68 -21 -31 0 -129 -28 -167
-48 -16 -8 -59 -21 -95 -28 -63 -13 -260 -71 -410 -120 -41 -13 -102 -31 -135
-40 -33 -8 -112 -30 -175 -49 -264 -78 -544 -158 -683 -195 -81 -21 -152 -42
-157 -45 -6 -3 -70 -22 -142 -41 -73 -18 -198 -52 -278 -74 -80 -22 -181 -49
-225 -61 -44 -11 -125 -33 -180 -49 -55 -16 -147 -41 -205 -55 -285 -70 -385
-97 -396 -106 -6 -5 -51 -16 -100 -24 -95 -17 -436 -100 -463 -114 -9 -5 -59
-16 -111 -26 -144 -27 -135 -20 -148 -122 -6 -48 -14 -124 -17 -168 -4 -54
-13 -90 -26 -112 -11 -17 -31 -88 -44 -157 -14 -69 -36 -158 -49 -198 -14 -40
-28 -91 -31 -113 -4 -22 -25 -92 -46 -156 -23 -68 -39 -134 -39 -161 0 -34 -6
-54 -23 -75 -29 -35 -57 -114 -57 -163 0 -26 -9 -48 -29 -74 -16 -20 -33 -51
-36 -69 -4 -18 -22 -63 -40 -102 -71 -146 -127 -279 -132 -314 -3 -20 -19 -51
-34 -68 -16 -18 -33 -51 -39 -72 -6 -22 -21 -53 -34 -68 -30 -36 -42 -60 -50
-102 -3 -18 -18 -45 -32 -60 -36 -36 -112 -158 -119 -191 -3 -15 -16 -36 -28
-46 -12 -11 -44 -55 -72 -97 -27 -43 -87 -129 -132 -190 -46 -62 -83 -120 -83
-130 0 -10 -15 -32 -33 -50 -19 -18 -87 -93 -152 -167 -214 -244 -500 -524
-755 -740 -29 -25 -63 -54 -75 -66 -13 -11 -43 -33 -69 -48 -25 -14 -80 -56
-122 -91 -42 -36 -82 -65 -90 -65 -7 0 -68 -34 -134 -76 -369 -231 -754 -420
-1160 -571 -267 -99 -599 -188 -875 -234 -228 -38 -228 -38 -248 9 -8 20 -32
75 -52 122 -20 47 -50 123 -66 169 -16 46 -38 99 -49 118 -11 19 -20 43 -20
53 0 18 -62 231 -129 445 -16 50 -36 126 -46 170 -10 44 -27 93 -37 108 -15
21 -22 54 -28 125 -9 109 -36 244 -55 282 -7 14 -16 57 -20 95 -13 138 -37
278 -56 319 -12 27 -19 64 -19 108 0 60 -30 326 -47 417 -3 19 -12 46 -19 60
-9 16 -14 60 -14 114 0 113 -46 701 -64 832 -9 62 -17 227 -20 432 l-6 332 58
39 c46 31 75 41 153 55 180 32 483 12 579 -38 70 -36 157 -58 212 -53 26 3 51
7 54 10 6 7 -43 403 -62 496 -24 117 -59 228 -112 359 -57 141 -92 204 -133
240 -16 15 -29 34 -29 43 0 27 -66 96 -140 145 -84 56 -160 87 -260 108 -41 9
-111 24 -155 34 -67 15 -127 18 -360 18 -246 0 -285 -2 -319 -18 -50 -22 -208
-26 -236 -5 -138 102 -261 170 -410 226 -110 42 -171 56 -280 68 -36 3 -76 12
-90 19 -46 24 -178 35 -408 35 -240 0 -380 -12 -416 -35 -13 -8 -64 -16 -134
-19 -112 -6 -215 -26 -262 -51 -14 -8 -50 -21 -80 -29 -172 -48 -455 -308
-514 -473 -8 -21 -26 -61 -40 -89 -15 -28 -33 -87 -41 -132 -8 -45 -23 -99
-34 -119 -10 -21 -26 -72 -35 -113 -25 -116 -42 -181 -60 -228 -9 -24 -21 -78
-27 -120 -7 -46 -20 -92 -35 -117 -13 -23 -31 -77 -39 -121 -9 -43 -22 -94
-30 -111 -24 -55 -55 -189 -55 -241 0 -35 -6 -57 -22 -77 -21 -27 -58 -141
-58 -180 0 -11 -11 -49 -24 -85 -33 -87 -94 -303 -118 -415 -10 -49 -32 -128
-48 -175 -16 -47 -33 -113 -39 -148 -6 -35 -22 -92 -35 -127 -14 -35 -33 -107
-42 -162 -9 -54 -23 -105 -30 -114 -8 -8 -24 -56 -35 -105 -12 -49 -37 -138
-55 -199 -41 -137 -77 -263 -120 -425 -33 -127 -82 -303 -128 -465 -14 -49
-26 -111 -26 -136 0 -30 -9 -63 -25 -93 -31 -59 -55 -150 -55 -214 0 -36 -7
-59 -25 -86 -27 -40 -55 -135 -55 -188 0 -19 -11 -57 -25 -84 -34 -67 -46
-113 -55 -221 -7 -78 -12 -98 -34 -123 -14 -17 -28 -47 -31 -68 -3 -20 -8 -50
-11 -67 -9 -52 -68 -160 -84 -156 -8 3 -69 13 -135 23 -66 11 -158 30 -205 43
-47 14 -116 32 -155 40 -71 16 -289 83 -380 116 -324 119 -490 190 -750 322
-333 168 -606 340 -925 583 -162 123 -171 131 -377 326 -379 357 -624 661
-975 1205 -64 100 -292 552 -363 718 -26 61 -59 137 -75 170 -16 33 -34 82
-41 109 -7 26 -21 56 -31 66 -12 11 -26 50 -37 106 -10 49 -26 107 -35 129
-18 43 -82 263 -126 437 -15 59 -34 114 -43 122 -9 10 -18 42 -21 83 -8 90
-34 252 -54 338 -14 61 -23 76 -68 122 -29 29 -64 55 -78 58 -14 3 -38 8 -53
11 -16 3 -35 12 -44 20 -21 19 -429 121 -530 133 -42 4 -87 16 -101 25 -14 9
-76 28 -139 42 -62 14 -120 29 -129 34 -8 4 -69 21 -135 38 -66 17 -230 60
-365 97 -135 36 -276 68 -315 71 -48 4 -81 13 -105 29 -19 12 -69 30 -110 40
-41 9 -97 25 -125 35 -27 11 -133 42 -235 71 -141 39 -209 53 -287 58 -87 6
-107 11 -140 34 -21 14 -60 35 -86 46 -58 25 -381 123 -492 149 -44 11 -96 26
-116 35 -21 8 -174 57 -340 107 -167 51 -360 110 -429 131 -69 22 -153 44
-188 49 -34 5 -78 18 -98 30 -19 12 -72 33 -117 46 -45 12 -147 46 -227 74
-80 28 -187 62 -238 75 -51 14 -101 29 -112 35 -10 5 -220 78 -467 161 -692
233 -889 300 -1148 394 -132 48 -258 92 -280 100 -82 26 -898 328 -1125 415
-74 28 -229 88 -345 132 -115 44 -267 102 -337 129 -70 27 -140 49 -156 49
-16 0 -37 8 -46 19 -9 10 -67 39 -129 64 -220 90 -363 144 -396 151 -19 3 -42
12 -50 20 -17 15 -114 57 -436 191 -115 48 -286 120 -380 160 -93 40 -203 84
-243 99 -39 14 -82 32 -95 40 -12 9 -43 22 -67 31 -25 8 -65 26 -90 39 -36 20
-276 128 -680 308 -93 41 -458 211 -545 253 -49 24 -146 70 -215 103 -289 137
-359 171 -630 307 -157 79 -310 153 -340 166 -30 12 -66 30 -80 39 -14 10 -99
56 -190 103 -91 46 -199 102 -240 124 -41 21 -93 47 -115 56 -22 10 -71 36
-110 58 -171 99 -455 249 -474 249 -11 0 -36 14 -55 31 -20 17 -82 57 -138 88
-289 162 -577 326 -693 396 -71 43 -158 91 -192 106 -33 16 -63 33 -65 38 -1
5 -61 45 -133 88 -131 80 -336 209 -475 298 -148 95 -299 185 -310 185 -9 0
-10 -12 -6 -37z m24768 -6043 c88 -13 132 -29 224 -81 75 -43 214 -162 235
-201 10 -19 6 -20 -258 -16 -190 2 -274 7 -288 15 -11 7 -46 24 -77 37 -32 14
-78 39 -103 56 -25 17 -60 36 -78 42 -17 7 -51 31 -75 55 -24 24 -48 43 -53
43 -5 0 -9 5 -9 10 0 6 11 10 24 10 14 0 37 5 53 11 25 10 170 24 293 27 25 1
75 -3 112 -8z"/>
<path d="M16965 31033 c-96 -8 -302 -35 -346 -44 -26 -6 -55 -19 -65 -30 -12
-14 -30 -19 -67 -19 -27 0 -77 -7 -111 -16 -127 -33 -384 -158 -482 -234 -27
-21 -72 -52 -100 -69 -67 -39 -255 -225 -330 -326 -105 -143 -126 -178 -195
-313 -71 -139 -104 -226 -115 -302 -4 -25 -13 -54 -20 -65 -8 -12 -23 -65 -34
-119 -18 -89 -20 -136 -20 -487 0 -348 2 -399 20 -492 57 -295 210 -621 385
-822 83 -95 246 -251 316 -304 221 -166 550 -311 814 -360 259 -48 554 -64
788 -41 240 23 541 100 732 187 118 54 312 173 408 250 132 106 315 304 363
393 10 19 26 44 35 55 65 83 171 320 223 501 59 206 70 329 62 704 -6 342 -7
346 -66 565 -32 122 -58 189 -135 350 -178 372 -526 694 -935 868 -121 51
-345 114 -487 138 -171 28 -500 44 -638 32z m420 -98 c80 -22 234 -95 298
-142 70 -51 191 -163 250 -232 27 -31 64 -73 83 -93 19 -21 34 -48 34 -61 0
-12 16 -46 35 -76 19 -29 35 -56 35 -61 0 -19 42 -104 57 -115 10 -7 19 -37
25 -75 4 -35 23 -109 42 -164 21 -64 42 -158 56 -256 12 -85 31 -190 42 -234
18 -71 20 -112 20 -430 1 -307 -1 -356 -16 -389 -9 -21 -23 -84 -32 -140 -24
-164 -42 -260 -53 -291 -6 -15 -23 -69 -37 -119 -37 -132 -141 -359 -217 -476
-38 -58 -113 -151 -175 -215 -59 -62 -117 -124 -129 -138 -12 -13 -45 -31 -75
-40 -29 -9 -92 -33 -140 -53 -168 -69 -346 -85 -535 -46 -312 64 -584 310
-768 694 -35 73 -79 179 -99 236 -19 57 -39 107 -44 110 -20 13 -32 53 -32
108 0 78 -39 331 -56 365 -10 20 -14 71 -14 195 0 93 -5 207 -11 253 -12 93 1
271 27 365 7 28 25 126 39 220 15 93 40 212 56 265 17 52 39 124 50 160 11 35
52 129 90 208 38 79 69 149 69 157 0 8 8 20 18 27 9 7 47 51 84 98 68 88 184
201 259 252 106 71 250 131 358 148 84 13 335 4 406 -15z"/>
<path d="M41370 31025 c-286 -30 -325 -36 -364 -56 -21 -11 -73 -24 -115 -29
-91 -11 -128 -21 -246 -67 -210 -81 -424 -209 -581 -348 -138 -121 -170 -160
-223 -272 -24 -50 -40 -69 -78 -93 -51 -32 -72 -61 -73 -98 0 -13 -17 -39 -40
-62 -25 -25 -40 -48 -40 -64 0 -34 -15 -71 -39 -95 -11 -11 -27 -45 -36 -75
-9 -29 -24 -71 -34 -92 -26 -56 -39 -124 -46 -248 -5 -85 -12 -119 -28 -150
-21 -39 -22 -54 -22 -263 0 -208 1 -225 22 -265 16 -33 24 -73 31 -173 8 -113
15 -148 55 -265 94 -282 217 -487 411 -688 334 -345 755 -542 1326 -619 96
-13 195 -17 430 -17 288 1 317 3 520 33 412 60 725 161 840 269 38 37 40 42
40 99 0 33 -7 82 -15 109 -11 35 -18 132 -25 339 -5 160 -14 328 -20 375 -14
124 -12 248 9 388 13 84 25 133 38 150 11 15 28 50 39 77 14 36 42 73 102 133
45 45 82 87 82 94 0 6 8 20 17 30 15 17 15 20 3 28 -18 12 -1288 12 -1345 1
l-40 -8 36 -16 c19 -9 42 -23 49 -32 8 -10 40 -34 71 -56 91 -62 128 -115 170
-245 12 -38 28 -80 35 -94 10 -21 10 -38 -3 -95 -13 -58 -16 -170 -19 -653
l-2 -583 -54 -57 c-49 -53 -61 -60 -173 -100 -243 -88 -279 -96 -475 -96 -200
0 -261 13 -425 85 -211 92 -427 311 -561 569 -60 115 -101 209 -119 275 -9 33
-27 85 -40 115 -12 30 -28 84 -35 120 -6 35 -23 84 -37 107 -24 41 -26 55 -36
276 -19 426 -7 889 25 953 9 16 25 76 38 134 33 160 113 393 174 513 174 342
395 555 697 676 183 73 507 82 739 20 99 -26 298 -124 381 -188 156 -118 273
-264 364 -454 37 -75 65 -121 85 -135 19 -14 30 -32 30 -47 0 -34 17 -40 23
-7 8 39 -12 192 -30 227 -8 18 -18 81 -23 155 -17 234 -52 409 -91 456 -14 17
-34 20 -479 64 -464 47 -675 55 -870 35z"/>
<path d="M31717 31024 c-4 -4 -56 -9 -115 -9 -118 -2 -170 -14 -334 -73 -314
-115 -526 -329 -609 -615 -30 -104 -38 -352 -15 -468 41 -201 130 -350 329
-551 131 -132 307 -282 370 -314 17 -9 61 -43 97 -74 36 -31 126 -103 200
-159 74 -56 201 -161 283 -233 233 -209 372 -370 437 -511 63 -136 73 -182 68
-316 -4 -104 -7 -124 -37 -193 -70 -166 -165 -270 -315 -345 -141 -71 -150
-73 -388 -83 -192 -8 -225 -7 -269 7 -30 10 -57 26 -67 40 -15 23 -99 73 -123
73 -29 0 -285 246 -294 283 -8 30 -84 153 -115 184 -13 12 -30 53 -41 98 -11
45 -29 89 -44 107 -14 16 -28 42 -31 56 -21 98 -36 133 -52 130 -14 -3 -18
-16 -20 -68 -5 -96 26 -331 46 -353 13 -14 18 -51 23 -165 9 -171 37 -404 51
-413 9 -6 363 -23 488 -24 36 0 99 3 141 7 92 9 117 3 125 -28 8 -30 21 -30
44 -2 17 22 18 22 121 7 162 -22 294 -17 424 15 166 42 381 140 503 230 82 60
233 226 286 314 64 108 123 283 142 425 24 172 6 381 -37 453 -10 17 -19 41
-19 53 0 93 -157 336 -333 514 -114 116 -292 271 -397 345 -25 18 -83 61 -129
97 -47 36 -92 65 -102 65 -10 0 -44 25 -76 56 -32 31 -84 74 -115 94 -64 42
-112 79 -164 128 -19 17 -39 32 -45 32 -15 0 -108 96 -118 122 -5 13 -38 67
-75 122 -40 59 -74 125 -87 165 -30 94 -36 235 -15 341 15 74 24 92 74 159 38
50 78 89 120 117 35 24 70 51 77 61 12 16 33 18 166 21 172 4 239 -5 344 -49
65 -27 205 -112 232 -141 61 -65 203 -265 258 -363 17 -30 39 -65 49 -80 14
-19 22 -53 27 -118 13 -152 42 -229 67 -180 11 20 -2 876 -13 906 -6 14 -20
17 -77 17 -41 0 -83 6 -101 15 -29 13 -113 25 -387 56 -124 13 -424 23 -433
13z"/>
<path d="M66085 31018 c-18 -7 -136 -12 -290 -13 -276 -3 -313 -7 -500 -62
-154 -45 -373 -144 -462 -210 -17 -12 -35 -23 -38 -23 -4 0 -49 -30 -101 -66
-149 -104 -254 -209 -406 -405 -51 -66 -64 -95 -73 -157 -5 -37 -16 -64 -35
-85 -15 -18 -35 -55 -44 -84 -9 -28 -23 -57 -31 -63 -8 -7 -23 -36 -35 -66
-11 -30 -29 -68 -41 -83 -26 -35 -48 -135 -49 -220 0 -44 -6 -73 -19 -95 -56
-91 -52 -694 4 -806 7 -14 18 -67 24 -119 7 -52 23 -122 36 -155 13 -34 33
-90 45 -125 47 -142 165 -347 247 -429 25 -24 52 -56 61 -71 9 -15 25 -36 35
-46 9 -11 34 -39 54 -63 51 -61 201 -185 307 -254 119 -78 336 -183 422 -204
38 -9 87 -24 109 -34 56 -26 138 -46 300 -72 121 -19 177 -22 410 -22 236 0
286 3 400 23 295 52 435 95 658 205 375 185 661 475 843 854 25 52 48 108 51
126 3 17 15 48 25 69 27 53 58 181 58 235 0 25 9 64 19 86 38 79 54 455 30
687 -12 122 -71 393 -98 454 -10 24 -27 69 -36 102 -9 32 -46 114 -81 183
-245 474 -679 810 -1236 954 -200 52 -490 80 -563 54z m180 -87 c96 -29 201
-80 303 -148 47 -32 94 -63 105 -69 26 -16 127 -121 127 -133 0 -6 25 -49 56
-96 57 -87 172 -318 194 -390 7 -22 26 -68 41 -101 16 -34 35 -94 43 -135 8
-41 22 -94 31 -119 11 -29 21 -96 26 -185 5 -77 13 -192 19 -255 12 -143 12
-444 0 -570 -5 -52 -14 -160 -20 -239 -6 -80 -18 -161 -26 -180 -8 -20 -28
-88 -44 -153 -57 -225 -151 -439 -268 -613 -209 -309 -554 -492 -890 -472
-310 18 -589 192 -787 487 -66 99 -160 284 -199 392 -19 53 -54 133 -77 179
-40 78 -43 90 -51 194 -4 60 -13 189 -20 285 -18 241 -15 633 6 860 10 101 21
189 25 195 5 5 23 73 41 150 18 77 48 182 66 234 19 51 34 106 34 123 0 41 21
86 72 154 58 77 168 248 168 261 0 6 10 17 23 26 12 8 49 40 82 71 126 118
323 231 455 261 97 22 371 14 465 -14z"/>
<path d="M12625 30955 c-44 -7 -174 -15 -290 -19 -199 -7 -275 -17 -275 -36 0
-5 27 -23 60 -41 66 -35 125 -96 183 -187 l37 -60 2 -1568 2 -1569 -28 -70
c-16 -38 -35 -83 -43 -99 -28 -54 -97 -119 -163 -151 -84 -41 -140 -75 -140
-85 0 -4 64 -11 143 -15 185 -9 1323 -2 1333 8 12 12 -43 63 -105 96 -64 34
-123 91 -176 171 l-37 55 0 921 c0 585 3 928 10 940 6 13 5 45 -4 99 -11 64
-12 208 -8 710 2 347 7 676 10 733 l6 102 272 0 c318 0 473 -15 626 -61 225
-67 367 -160 547 -359 18 -19 46 -47 62 -61 24 -20 31 -35 31 -61 0 -39 47
-160 79 -205 13 -19 22 -51 26 -102 8 -85 20 -124 38 -118 26 9 -11 339 -44
393 -15 25 -19 50 -19 126 0 125 -27 321 -51 374 -10 24 -19 51 -19 61 0 36
-28 60 -92 78 -58 16 -78 16 -248 5 -141 -10 -198 -10 -238 -1 -76 16 -1377
13 -1487 -4z"/>
<path d="M20595 30957 c-23 -13 -565 -31 -857 -28 -143 2 -184 -1 -215 -14
l-38 -16 85 -33 c154 -60 233 -101 267 -136 l33 -35 -3 -1580 c-3 -1468 -4
-1585 -20 -1655 -10 -41 -27 -86 -37 -100 -11 -14 -28 -41 -39 -60 -28 -51
-80 -100 -126 -117 -22 -8 -86 -31 -142 -50 -91 -32 -125 -54 -108 -71 9 -9
1008 -8 1022 1 24 15 0 37 -61 56 -34 11 -90 31 -124 45 -34 14 -73 26 -87 26
-16 0 -41 17 -75 50 -58 58 -70 83 -70 148 -1 26 -7 74 -15 107 -13 51 -15
288 -15 1583 0 837 3 1522 6 1522 12 0 180 -163 194 -189 8 -15 28 -45 44 -67
17 -21 48 -64 70 -94 22 -30 70 -89 106 -130 37 -41 73 -86 80 -100 21 -40
448 -583 520 -662 42 -46 84 -99 97 -126 8 -14 52 -73 98 -131 47 -58 137
-173 201 -256 63 -82 126 -161 139 -175 51 -54 99 -112 114 -140 17 -33 68
-99 146 -194 28 -34 71 -88 95 -121 24 -33 96 -124 159 -203 64 -79 125 -155
136 -170 11 -15 81 -103 155 -195 74 -93 148 -188 164 -210 17 -23 73 -96 125
-161 53 -66 124 -154 158 -197 34 -42 66 -79 71 -83 11 -6 12 1508 1 1518 -3
4 -24 3 -45 -2 l-39 -8 -3 -72 c-2 -40 -7 -72 -11 -72 -5 0 -49 51 -98 113
-50 61 -100 121 -113 132 -12 11 -28 33 -35 50 -7 16 -74 109 -150 205 -75 96
-164 211 -197 255 -34 44 -74 94 -90 110 -16 17 -72 89 -125 160 -52 72 -121
159 -153 195 -31 36 -63 76 -70 90 -21 40 -451 591 -495 635 -22 22 -46 52
-52 66 -14 31 -125 179 -195 259 -85 97 -99 115 -110 135 -24 44 -140 194
-154 199 -26 10 -98 6 -119 -7z"/>
<path d="M25435 30958 c-17 -6 -145 -11 -305 -12 -251 -2 -278 -4 -308 -21
-35 -21 -39 -30 -18 -38 7 -3 17 -31 22 -64 5 -32 9 -512 10 -1068 0 -555 2
-1296 3 -1645 3 -570 1 -640 -14 -680 -9 -25 -24 -68 -35 -96 -33 -94 -56
-117 -149 -159 -100 -44 -118 -50 -193 -65 -45 -9 -58 -15 -58 -30 0 -10 7
-21 16 -24 21 -8 1500 -8 1587 1 102 9 89 32 -38 64 -132 33 -220 97 -279 203
-11 21 -28 50 -36 65 -13 23 -15 230 -18 1666 -2 902 0 1682 3 1733 l7 92 131
0 c148 0 366 -17 382 -29 5 -5 55 -23 110 -41 210 -68 366 -185 499 -376 27
-38 62 -82 77 -99 32 -35 49 -74 49 -116 0 -16 12 -77 26 -134 21 -84 31 -107
51 -120 14 -9 27 -14 30 -12 8 9 -66 507 -81 535 -20 40 -26 87 -35 259 -7
123 -12 158 -25 171 -15 15 -55 17 -374 17 -324 0 -359 2 -382 18 -22 15 -54
17 -325 16 -179 0 -312 -5 -330 -11z"/>
<path d="M28580 30944 c-14 -37 -13 -43 13 -48 12 -3 135 -7 272 -10 286 -5
338 -12 490 -61 336 -109 532 -289 662 -610 23 -55 51 -144 64 -197 22 -93 39
-122 61 -100 9 9 -22 285 -47 418 -8 43 -26 161 -39 261 -14 100 -32 196 -41
212 -8 17 -15 44 -15 61 0 17 -7 44 -15 60 -19 37 -82 49 -138 25 -56 -23
-917 -24 -992 -1 -32 10 -88 16 -158 16 -106 0 -108 0 -117 -26z"/>
<path d="M34545 30955 c-3 -8 -7 -21 -9 -28 -3 -9 19 -21 66 -35 83 -26 166
-77 202 -124 14 -19 45 -70 68 -114 l43 -79 0 -1525 0 -1525 -26 -92 c-15 -51
-38 -112 -52 -136 -56 -94 -177 -170 -303 -188 -74 -10 -84 -14 -84 -33 0 -21
340 -28 1047 -24 418 2 605 6 613 14 17 17 -8 32 -90 55 -146 40 -223 98 -282
211 l-33 63 0 925 0 925 215 3 c340 5 420 -18 566 -162 70 -69 90 -97 129
-178 36 -73 49 -114 56 -174 14 -116 17 -124 39 -124 17 0 20 7 20 39 0 21 -7
58 -16 82 -13 38 -13 58 -4 144 8 65 11 240 8 500 -3 351 -5 404 -20 430 -18
33 -18 33 -38 -50 -19 -75 -74 -184 -120 -238 -112 -129 -220 -174 -440 -187
-69 -4 -138 -12 -153 -18 -41 -17 -122 -15 -137 3 -8 9 -29 15 -55 15 -31 0
-45 5 -49 17 -8 21 -7 1306 1 1446 l6 97 266 0 c346 0 463 -11 616 -56 211
-63 373 -160 501 -298 59 -64 88 -108 141 -211 36 -71 74 -141 84 -155 10 -15
19 -54 23 -95 9 -97 29 -169 48 -173 9 -2 18 5 20 15 6 31 -32 294 -47 323 -9
17 -19 82 -24 162 -12 162 -56 459 -73 496 -32 66 -141 89 -268 56 -51 -13
-72 -13 -134 -4 -54 9 -91 9 -142 1 -38 -5 -112 -13 -165 -17 -85 -5 -99 -4
-134 15 -38 20 -54 21 -333 21 -252 0 -297 -2 -325 -16 -28 -15 -81 -16 -537
-11 -316 3 -518 9 -540 16 -53 17 -140 14 -145 -4z"/>
<path d="M37954 30956 c-16 -12 -63 -17 -188 -22 -92 -4 -169 -11 -172 -15 -2
-4 19 -12 48 -18 152 -32 251 -119 309 -272 19 -49 19 -97 19 -1610 0 -1118
-3 -1572 -11 -1602 -29 -107 -107 -211 -191 -253 -27 -13 -87 -34 -135 -47
-63 -16 -89 -27 -91 -39 -2 -12 6 -19 30 -23 18 -3 389 -5 825 -3 617 2 795 6
805 16 19 19 -1 31 -77 47 -152 32 -264 114 -306 225 -11 30 -30 108 -41 175
-20 111 -20 130 -9 262 7 78 10 147 7 152 -7 11 -22 1106 -19 1370 1 91 7 185
12 210 6 25 12 190 13 366 3 264 0 327 -12 360 -10 27 -15 77 -15 155 1 107 3
122 38 220 20 58 37 114 37 126 0 12 11 29 26 39 15 9 40 32 56 51 17 19 37
34 47 34 21 0 141 43 141 51 0 3 -9 17 -21 30 -19 22 -27 24 -97 21 -101 -5
-185 -4 -632 3 -327 5 -378 4 -396 -9z"/>
<path d="M44305 30954 c-65 -18 -365 -21 -458 -4 -53 9 -74 10 -97 0 -31 -13
-47 -38 -27 -45 93 -32 135 -53 176 -85 55 -44 77 -72 116 -150 15 -30 32 -61
38 -69 8 -10 12 -362 13 -1240 1 -846 5 -1242 13 -1279 38 -183 129 -400 224
-532 48 -67 228 -246 303 -301 69 -50 264 -149 364 -182 41 -14 134 -38 205
-54 122 -25 145 -27 385 -27 242 0 261 1 380 28 169 37 255 67 383 132 209
105 333 209 477 399 46 61 137 239 156 304 7 25 22 71 33 102 33 91 44 185 41
334 -4 150 -3 282 0 355 1 25 -5 80 -14 122 -20 98 -20 185 0 284 20 97 15
355 -8 419 -14 38 -15 38 -26 18 -18 -34 -25 -264 -12 -398 7 -66 12 -131 11
-145 -8 -337 -23 -656 -35 -748 -34 -262 -141 -503 -292 -657 -141 -144 -281
-225 -468 -271 -96 -23 -371 -29 -492 -10 -103 15 -228 61 -328 120 -84 49
-193 145 -248 218 -124 164 -181 295 -230 527 -31 146 -32 147 -38 561 -4 228
-8 751 -9 1161 -1 714 0 747 18 770 25 33 61 105 61 123 0 23 113 136 136 136
11 0 40 6 65 14 24 8 57 17 73 21 15 3 26 9 23 12 -10 9 -162 23 -392 34 -360
18 -464 19 -520 3z"/>
<path d="M48276 30963 c-4 -5 -135 -10 -290 -13 -248 -4 -285 -7 -309 -23 -15
-9 -27 -21 -27 -25 0 -9 87 -42 112 -42 9 0 28 -15 42 -33 14 -18 37 -39 51
-47 16 -9 30 -30 41 -64 9 -28 24 -60 34 -71 10 -11 23 -30 29 -42 17 -34 14
-3044 -4 -3092 -7 -20 -18 -63 -25 -96 -18 -89 -46 -147 -93 -192 -46 -44
-161 -107 -217 -118 -19 -4 -48 -15 -65 -23 -30 -16 -29 -17 75 -24 140 -11
1346 -5 1357 6 4 5 1 11 -7 14 -8 2 -35 26 -60 53 -29 30 -63 54 -94 66 -85
31 -80 -43 -84 1102 -2 642 0 1007 6 1013 6 6 24 13 42 17 l32 6 -24 26 c-13
14 -31 28 -41 32 -16 6 -17 54 -17 745 0 559 3 741 12 750 16 16 -15 39 -62
47 -19 3 -56 12 -81 20 -50 16 -319 22 -333 8z"/>
<path d="M49134 30955 c-12 -7 -52 -22 -89 -31 -93 -23 -66 -32 100 -33 150
-1 331 -16 426 -36 91 -19 264 -85 345 -133 120 -71 283 -231 338 -332 10 -19
27 -44 37 -55 10 -11 25 -41 34 -65 9 -25 28 -63 43 -84 24 -34 28 -52 33
-144 5 -72 12 -109 22 -119 13 -14 16 -13 26 6 16 29 -15 264 -40 306 -18 31
-30 124 -49 377 -5 71 -15 128 -24 147 -9 17 -20 58 -25 92 -5 42 -14 67 -26
76 -15 10 -89 13 -350 13 -265 0 -342 3 -381 15 -69 21 -390 21 -420 0z"/>
<path d="M50995 30961 c-34 -11 -105 -51 -104 -59 0 -4 26 -19 57 -34 71 -33
125 -79 183 -154 l44 -57 0 -1636 0 -1636 -23 -45 c-13 -25 -34 -66 -48 -92
-17 -34 -32 -50 -52 -54 -15 -4 -56 -20 -92 -36 -36 -16 -92 -35 -124 -42 -57
-11 -90 -36 -72 -53 9 -10 1532 -11 1541 -1 13 12 -59 75 -121 106 -71 36
-130 106 -163 195 l-21 58 0 1588 c0 1571 0 1590 20 1655 16 50 31 75 61 103
64 60 144 110 198 124 28 7 51 16 51 21 0 4 -12 15 -26 25 -41 26 -327 39
-400 18 -73 -21 -479 -21 -579 0 -71 15 -291 19 -330 6z"/>
<path d="M53601 30955 c-41 -18 -201 -20 -319 -3 -67 9 -100 9 -165 -2 -48 -8
-152 -13 -252 -13 -154 1 -173 -1 -195 -18 l-25 -19 26 -23 c15 -12 52 -41 82
-64 46 -34 63 -56 98 -128 l43 -87 3 -1601 c2 -881 1 -1621 -3 -1645 -4 -34
-16 -53 -59 -97 -29 -30 -57 -55 -61 -55 -4 0 -30 -12 -58 -26 -37 -18 -58
-38 -74 -67 -12 -22 -19 -43 -16 -46 8 -8 1361 -7 1369 1 4 4 1 21 -6 37 -10
22 -28 37 -63 52 -99 42 -188 152 -211 259 -4 19 -16 61 -27 93 -19 56 -20 77
-14 520 4 366 19 920 25 935 1 1 7 2 14 2 10 0 7 15 -12 52 l-26 53 -7 560
c-3 308 -7 565 -7 570 -1 6 1 129 5 275 4 197 9 273 20 297 8 17 14 52 14 77
l0 46 190 0 c109 0 190 4 190 9 0 15 -58 29 -140 36 -41 4 -98 13 -127 21 -65
18 -168 17 -212 -1z"/>
<path d="M56165 30957 c-17 -8 -36 -21 -43 -30 -12 -14 -5 -18 55 -36 126 -38
205 -105 271 -234 l37 -72 1 -1590 c1 -931 -2 -1611 -8 -1641 -8 -46 -15 -56
-75 -108 -71 -61 -121 -90 -221 -126 -128 -46 -244 -7 -387 130 -38 36 -89 81
-112 99 -36 28 -43 40 -56 96 -14 59 -94 216 -118 231 -6 3 -21 31 -35 62 -27
61 -167 308 -217 382 -16 25 -45 61 -62 80 -18 20 -35 51 -39 71 -7 37 -69
144 -111 189 -13 14 -32 48 -43 76 -38 103 -199 298 -332 405 l-45 36 40 7
c28 5 44 14 50 29 12 28 64 46 133 46 96 1 178 52 332 205 188 186 264 357
277 621 7 152 -8 265 -51 388 -99 279 -275 458 -580 587 -153 64 -248 83 -421
84 -143 1 -153 0 -205 -26 -37 -17 -48 -27 -34 -27 12 -1 27 -8 34 -16 7 -8
41 -29 76 -46 128 -63 293 -248 341 -383 14 -39 31 -78 38 -86 7 -8 18 -33 23
-55 17 -65 24 -387 13 -568 -10 -166 -11 -169 -40 -203 -17 -18 -33 -50 -36
-71 -3 -21 -8 -48 -11 -59 -6 -34 -231 -256 -294 -291 -80 -45 -161 -70 -278
-84 l-103 -12 -20 -39 -19 -38 32 -20 c18 -11 36 -20 39 -20 9 0 89 -109 89
-121 0 -6 35 -72 79 -147 43 -75 103 -182 134 -237 31 -55 68 -111 82 -123 13
-13 30 -42 36 -65 6 -23 22 -54 35 -70 13 -15 28 -45 34 -65 5 -20 19 -51 29
-69 11 -17 50 -89 87 -160 80 -154 130 -239 161 -273 12 -14 29 -45 38 -69 8
-24 28 -59 45 -77 16 -19 30 -45 30 -57 0 -24 75 -162 142 -259 l39 -58 1218
0 c1134 0 1341 3 1341 19 0 4 -22 14 -48 23 -27 10 -64 29 -83 43 -19 14 -47
31 -64 39 -46 22 -84 55 -103 89 -16 30 -17 103 -14 1026 2 778 5 1000 15
1020 11 22 10 32 -4 66 -22 50 -24 141 -14 520 8 278 7 296 -15 420 -27 153
-24 314 10 430 11 38 20 86 20 106 l0 37 87 7 88 7 -35 30 -35 30 -85 -9 c-47
-4 -148 -7 -225 -5 -77 1 -255 4 -395 6 -140 1 -307 6 -370 10 -88 5 -122 3
-145 -7z"/>
<path d="M59366 30945 c-9 -13 -16 -27 -16 -29 0 -3 30 -14 68 -25 74 -23 138
-59 195 -113 21 -20 49 -44 63 -53 14 -9 39 -37 55 -63 27 -42 30 -52 24 -102
-4 -30 -14 -77 -23 -105 -15 -45 -17 -188 -23 -1560 -4 -910 -10 -1531 -16
-1563 -14 -76 -59 -118 -181 -169 -53 -23 -113 -44 -132 -48 -47 -10 -70 -23
-70 -39 0 -11 25 -16 98 -21 140 -11 1803 2 1952 15 218 19 481 68 512 97 10
9 47 19 90 23 79 9 110 18 263 78 271 106 498 247 673 420 133 132 232 261
232 303 0 20 9 35 30 51 18 13 47 57 74 112 152 310 210 740 155 1147 -25 187
-47 284 -93 411 -222 610 -755 1022 -1525 1177 -255 52 -686 84 -991 75 -25
-1 -148 -1 -275 0 -126 0 -255 -1 -285 -4 -30 -2 -139 -1 -243 4 -177 7 -191
6 -258 -14 -79 -25 -142 -23 -194 4 -17 9 -55 16 -86 16 -49 0 -59 -3 -73 -25z
m1852 -76 c185 -15 480 -123 617 -224 286 -212 454 -452 575 -823 27 -83 54
-161 60 -172 32 -60 56 -574 40 -863 -14 -249 -18 -281 -64 -452 -61 -230
-109 -349 -229 -560 -28 -49 -63 -104 -77 -121 -14 -17 -41 -53 -60 -79 -87
-118 -207 -225 -252 -225 -10 0 -62 -22 -116 -49 -141 -70 -271 -116 -400
-141 -62 -12 -132 -30 -155 -40 -57 -25 -203 -34 -307 -20 -120 16 -125 17
-157 44 -15 12 -52 31 -81 41 -65 21 -69 30 -83 174 -6 58 -17 120 -24 137
-25 59 -27 113 -10 247 23 192 18 994 -8 1077 -32 105 -39 278 -28 680 6 206
11 397 10 424 0 72 -24 121 -74 155 l-43 29 -28 -86 c-26 -81 -28 -103 -35
-332 -6 -207 -11 -265 -34 -375 -15 -71 -35 -148 -44 -169 l-17 -40 -24 55
c-23 52 -24 64 -25 269 l-1 215 -31 46 c-17 25 -64 72 -104 104 -77 64 -105
110 -120 199 -9 54 9 103 51 141 l22 20 42 -47 c33 -37 48 -47 79 -49 35 -3
39 0 73 49 20 31 50 60 69 69 19 9 37 24 40 33 4 12 16 16 47 16 38 -1 42 2
50 29 6 21 29 45 77 80 83 61 81 52 81 341 l0 203 63 4 c96 6 509 -3 635 -14z
m-1248 -191 c4 -7 15 -59 24 -116 9 -57 21 -112 26 -123 8 -14 7 -27 -4 -48
-26 -49 -46 -48 -93 6 -46 52 -76 128 -88 223 -6 50 -4 58 18 82 l26 28 42
-19 c23 -11 45 -25 49 -33z m273 -315 c31 -5 38 -9 35 -27 -2 -16 -11 -22 -37
-24 -32 -3 -101 24 -101 39 0 17 43 22 103 12z m-34 -2445 c-1 -13 -4 -34 -8
-48 -7 -22 -8 -19 -12 18 -3 24 -3 45 0 48 11 11 21 2 20 -18z m-40 -441 c6
-8 17 -46 26 -86 8 -40 17 -77 20 -81 11 -17 -82 -26 -144 -14 -17 4 -31 12
-31 18 0 25 30 112 50 144 21 34 58 43 79 19z"/>
<path d="M46462 30939 c3 -21 10 -25 53 -30 81 -10 190 -53 259 -103 64 -46
93 -80 151 -181 l29 -50 7 -295 c4 -174 12 -311 19 -333 6 -22 13 -37 14 -35
2 1 16 67 31 145 25 130 26 149 16 218 -6 42 -11 108 -11 146 0 64 5 80 46
165 25 52 64 117 86 145 47 60 151 130 231 155 35 11 54 21 48 27 -16 16 -243
28 -576 32 -176 1 -340 6 -363 10 -42 7 -44 6 -40 -16z"/>
<path d="M58095 30929 c-57 -30 -59 -32 -35 -41 13 -5 31 -15 40 -22 8 -7 67
-30 129 -50 63 -21 133 -47 155 -58 143 -72 308 -227 396 -371 68 -111 70
-113 120 -98 45 13 46 18 30 116 -6 33 -24 155 -40 270 -17 116 -33 218 -36
228 -11 36 -63 51 -159 47 -138 -5 -288 -4 -420 4 l-120 7 -60 -32z"/>
<path d="M22414 30931 c-19 -7 -34 -16 -34 -20 0 -3 32 -21 70 -39 96 -44 196
-140 244 -232 65 -123 66 -129 67 -885 0 -374 4 -702 8 -730 l7 -50 13 40 c7
22 25 60 39 85 l26 45 6 685 c4 442 10 696 17 715 6 17 32 72 59 124 41 78 57
99 99 127 28 18 72 49 99 68 l48 34 -28 19 c-30 20 -44 20 -488 25 -165 2
-226 0 -252 -11z"/>
<path d="M23609 30922 c-16 -21 -19 -42 -19 -126 0 -81 -4 -108 -20 -138 -41
-78 -66 -427 -35 -488 9 -17 17 -30 19 -30 2 0 11 21 21 48 91 244 241 436
420 536 48 26 137 66 198 88 61 21 116 43 122 47 5 5 57 11 115 15 149 9 212
18 203 27 -15 15 -158 31 -222 25 -34 -3 -109 -1 -165 4 -55 5 -217 11 -359
12 l-259 4 -19 -24z"/>
<path d="M27344 30931 c-19 -7 -34 -17 -34 -21 0 -5 21 -16 48 -24 26 -9 81
-42 124 -73 64 -48 80 -66 98 -111 13 -29 34 -64 48 -77 l25 -24 2 -883 c1
-808 3 -888 18 -938 28 -88 31 -130 12 -190 -14 -46 -19 -127 -26 -505 -5
-247 -14 -477 -20 -510 -6 -33 -15 -91 -19 -130 -9 -80 -37 -151 -81 -207 -39
-48 -173 -114 -268 -132 -54 -10 -66 -16 -66 -32 0 -19 16 -19 780 -22 755 -3
937 1 919 18 -8 8 -115 40 -207 61 -77 19 -167 67 -211 115 l-44 47 -7 141
c-3 78 -5 532 -3 1009 3 792 4 870 19 881 16 11 15 15 -2 51 -19 39 -20 65
-17 772 3 719 3 732 23 747 19 14 19 15 -15 29 -51 22 -1045 29 -1096 8z"/>
<path d="M57678 30903 c12 -2 30 -2 40 0 9 3 -1 5 -23 4 -22 0 -30 -2 -17 -4z"/>
<path d="M42845 29998 c-9 -36 1 -66 17 -50 8 8 8 21 1 44 l-10 33 -8 -27z"/>
<path d="M23466 29964 c-8 -29 1 -64 15 -64 10 0 39 60 39 80 0 5 -11 10 -24
10 -17 0 -26 -7 -30 -26z"/>
<path d="M49795 29968 c-3 -7 -12 -57 -20 -111 -16 -112 -58 -201 -133 -287
-49 -56 -150 -119 -232 -145 -30 -10 -62 -24 -70 -31 -33 -29 -90 -43 -205
-50 l-120 -9 115 -6 c215 -11 347 -65 470 -189 80 -81 119 -148 160 -275 12
-38 28 -76 35 -84 32 -33 36 52 33 628 -2 440 -6 565 -15 568 -7 3 -15 -1 -18
-9z"/>
<path d="M29476 29948 c-3 -13 -10 -57 -16 -98 -13 -97 -64 -202 -136 -279
-111 -120 -227 -168 -439 -180 -101 -6 -142 -13 -183 -31 -29 -12 -51 -25 -48
-27 2 -2 75 -9 163 -14 198 -11 273 -27 338 -70 197 -130 315 -326 315 -520 0
-35 12 -49 41 -49 5 0 9 260 9 645 0 636 0 645 -20 645 -12 0 -21 -8 -24 -22z"/>
<path d="M58316 29918 c-17 -130 -35 -189 -81 -262 -73 -117 -164 -192 -280
-230 -27 -9 -69 -34 -93 -55 l-43 -37 118 -59 c102 -50 128 -68 193 -135 108
-109 162 -225 185 -393 5 -41 8 -46 24 -37 10 5 22 6 26 2 4 -4 5 61 2 143 -3
83 0 276 6 430 7 210 7 325 -2 460 -7 99 -15 190 -18 203 -10 41 -30 24 -37
-30z"/>
<path d="M14095 29730 c-3 -5 -25 -47 -47 -92 -31 -61 -60 -101 -112 -153 -80
-79 -129 -106 -242 -135 -62 -16 -83 -27 -105 -53 -16 -17 -28 -34 -29 -38 0
-3 34 -11 75 -18 98 -16 178 -58 262 -136 105 -96 145 -156 178 -263 29 -92
29 -92 48 -73 28 28 35 113 37 476 3 498 4 467 -16 482 -21 15 -40 17 -49 3z"/>
<path d="M57570 29340 c-19 -6 -12 -8 30 -9 39 0 51 2 40 9 -17 11 -35 11 -70
0z"/>
<path d="M41830 29094 c0 -11 6 -14 23 -9 38 12 43 25 9 25 -22 0 -32 -5 -32
-16z"/>
<path d="M30569 28405 c-6 -6 16 -189 29 -237 9 -31 10 -29 16 32 4 36 6 97 4
135 -3 62 -5 70 -23 73 -12 2 -23 0 -26 -3z"/>
<path d="M30181 28103 c-6 -21 -19 -72 -30 -113 -47 -181 -93 -292 -166 -397
-99 -143 -163 -216 -214 -243 -24 -13 -75 -55 -114 -92 -70 -68 -71 -68 -126
-68 -69 0 -275 -46 -316 -70 -16 -10 -49 -23 -72 -29 -24 -7 -43 -15 -43 -20
0 -4 48 -11 107 -14 154 -10 836 -8 851 2 45 28 84 234 98 520 4 81 11 134 20
149 14 21 36 147 49 283 6 51 3 73 -9 98 -9 17 -18 31 -21 31 -2 0 -9 -17 -14
-37z"/>
<path d="M59021 28103 c-24 -89 -31 -132 -31 -190 0 -54 -3 -64 -25 -82 -16
-12 -34 -44 -47 -83 -11 -35 -28 -72 -38 -83 -9 -11 -32 -47 -50 -80 -19 -33
-38 -62 -42 -63 -5 -2 -17 -21 -28 -42 -20 -40 -45 -60 -195 -159 -49 -33
-110 -74 -134 -91 -28 -20 -64 -35 -100 -41 -31 -5 -87 -17 -125 -27 -65 -16
-69 -19 -81 -55 -9 -26 -9 -39 -2 -44 14 -8 758 -18 790 -9 21 5 26 14 36 68
21 119 40 313 40 401 0 67 4 93 15 106 10 11 22 60 31 132 8 63 22 165 31 227
14 107 14 115 -2 133 -24 27 -32 24 -43 -18z"/>
<path d="M50490 28082 c-6 -22 -14 -71 -19 -109 -6 -46 -19 -87 -39 -124 -17
-30 -36 -76 -43 -104 -6 -27 -22 -61 -34 -75 -12 -14 -28 -36 -35 -49 -7 -13
-33 -52 -57 -85 -25 -34 -49 -71 -54 -84 -18 -46 -59 -90 -92 -96 -17 -4 -62
-27 -99 -51 -37 -25 -70 -45 -72 -45 -3 0 -28 -14 -56 -32 -27 -17 -69 -34
-93 -38 -139 -24 -265 -55 -282 -70 -11 -10 -37 -23 -57 -30 -21 -6 -38 -15
-38 -19 0 -14 203 -21 585 -21 282 0 375 3 387 13 26 19 78 386 78 548 0 53 6
90 19 120 23 52 54 286 45 334 -3 19 -12 39 -19 45 -11 9 -16 3 -25 -28z"/>
<path d="M57673 27083 c-46 -9 -21 -23 42 -23 37 0 65 4 65 10 0 6 -10 10 -22
10 -13 0 -32 2 -43 4 -11 2 -30 2 -42 -1z"/>
<path d="M36460 24300 c-107 -4 -200 -13 -240 -23 -271 -67 -507 -263 -625
-521 -18 -39 -46 -120 -61 -181 -24 -93 -28 -130 -27 -240 0 -203 38 -352 125
-499 58 -97 177 -232 237 -268 21 -13 71 -45 111 -71 84 -56 223 -112 313
-127 97 -16 394 -13 478 5 82 17 219 74 252 104 62 57 122 100 148 105 37 7
127 91 184 171 56 77 118 204 138 280 27 104 50 294 42 360 -16 146 -54 289
-101 380 -73 140 -115 192 -254 319 -79 73 -269 166 -385 190 -100 21 -138 23
-335 16z m254 -191 c60 -17 129 -39 152 -50 113 -48 241 -154 321 -266 24 -34
48 -63 53 -65 6 -2 16 -25 23 -53 88 -326 89 -335 57 -468 -37 -151 -51 -191
-106 -302 -39 -79 -66 -120 -95 -145 -23 -19 -58 -52 -78 -72 -22 -23 -53 -41
-81 -48 -25 -7 -53 -19 -62 -27 -33 -30 -205 -65 -343 -70 -167 -6 -340 25
-419 75 -28 18 -58 32 -68 32 -17 0 -208 185 -208 201 0 4 -18 38 -40 75 -22
38 -49 96 -60 130 -12 34 -29 72 -40 84 -40 46 -36 183 13 375 30 117 55 178
99 243 60 89 113 146 205 219 101 80 138 96 333 138 147 33 212 31 344 -6z"/>
<path d="M26034 24243 c-14 -32 -33 -74 -41 -93 -8 -19 -37 -82 -63 -140 -26
-58 -70 -154 -98 -215 -27 -60 -53 -126 -57 -145 -4 -19 -18 -48 -30 -65 -13
-16 -29 -50 -36 -75 -7 -25 -23 -58 -35 -75 -23 -32 -54 -114 -54 -144 0 -10
-11 -35 -25 -55 -66 -98 -116 -211 -126 -285 -5 -41 -15 -82 -21 -92 -7 -9
-35 -45 -61 -79 -26 -34 -56 -82 -67 -108 -10 -26 -46 -102 -79 -169 -34 -68
-61 -127 -61 -133 0 -13 170 -13 203 -1 19 7 38 42 90 160 37 83 72 173 78
199 7 26 20 56 29 67 10 11 25 34 34 52 19 38 25 42 84 57 36 10 65 9 132 -1
57 -8 207 -13 462 -13 207 0 383 -3 392 -6 9 -3 44 -63 78 -133 33 -69 72
-140 85 -157 13 -18 28 -56 33 -87 13 -81 43 -134 80 -142 37 -8 168 3 175 15
3 5 -4 29 -15 55 -47 111 -204 442 -220 465 -9 14 -20 39 -24 55 -10 40 -224
516 -280 623 -14 26 -37 79 -52 117 -39 100 -88 197 -113 219 -12 11 -21 29
-21 42 0 32 -31 111 -93 234 l-52 105 -102 3 -103 3 -26 -58z m187 -304 c26
-57 88 -196 139 -309 50 -113 113 -250 140 -305 43 -90 110 -250 110 -266 0
-6 -324 -20 -545 -24 -87 -1 -106 -5 -150 -28 -66 -35 -162 -59 -185 -47 -26
14 -50 56 -50 87 1 90 88 268 153 315 28 19 107 202 107 246 0 17 9 37 24 51
13 13 62 106 108 207 46 101 87 183 92 181 5 -2 31 -50 57 -108z"/>
<path d="M28845 24289 c-3 -8 -4 -444 -3 -969 l3 -955 455 2 c477 2 492 3 678
52 41 11 90 31 110 44 21 14 51 28 67 32 43 9 108 49 170 104 29 25 65 54 79
64 15 10 39 37 54 60 14 23 37 55 50 71 27 33 77 131 99 190 8 23 19 88 24
145 5 57 14 110 21 118 18 22 14 145 -6 176 -13 18 -20 59 -25 134 -9 131 -34
188 -119 279 -16 17 -32 48 -36 70 -6 29 -22 53 -70 99 -60 58 -84 75 -167
121 -21 12 -52 33 -69 47 -17 15 -50 32 -73 38 -23 6 -61 20 -84 30 -90 42
-178 50 -513 48 -173 -2 -388 1 -477 5 -134 7 -164 6 -168 -5z m845 -163 c25
-8 92 -24 150 -35 161 -32 294 -103 408 -220 85 -87 121 -148 174 -292 42
-111 43 -117 43 -239 0 -120 -2 -130 -42 -254 -24 -71 -43 -135 -43 -144 0
-18 -45 -73 -125 -153 -118 -117 -143 -139 -163 -139 -11 0 -50 -14 -87 -30
-37 -17 -113 -39 -168 -50 -56 -12 -121 -28 -145 -37 -44 -16 -128 -14 -267 6
-33 5 -130 10 -216 10 l-157 1 -5 88 c-7 118 -6 1342 0 1415 l6 57 39 0 c22 0
54 7 71 15 42 19 108 23 312 20 120 -2 183 -8 215 -19z"/>
<path d="M32130 24292 c0 -4 30 -73 66 -153 36 -79 79 -173 94 -209 15 -36 47
-108 70 -160 23 -52 54 -124 70 -160 87 -205 433 -976 464 -1035 55 -104 106
-189 119 -197 7 -4 42 -8 79 -8 67 0 68 0 93 37 14 21 25 42 25 46 0 5 11 22
25 38 13 16 32 55 42 87 10 31 28 72 40 91 13 19 23 38 23 43 0 6 18 47 40 91
36 75 142 309 225 497 18 41 51 116 73 165 23 50 50 113 61 140 11 28 36 86
55 130 20 44 36 93 36 109 0 18 10 40 24 55 37 39 182 364 170 383 -3 4 -42 8
-88 8 -116 0 -109 9 -246 -310 -15 -36 -42 -96 -60 -135 -17 -38 -34 -92 -37
-118 -3 -27 -16 -63 -29 -80 -67 -94 -220 -419 -271 -577 -14 -41 -35 -95 -48
-120 -13 -25 -29 -74 -36 -110 -10 -53 -19 -71 -51 -102 -21 -20 -38 -43 -38
-50 -1 -38 -17 -39 -70 -4 -67 45 -79 65 -80 142 0 72 -14 120 -45 154 -13 14
-30 53 -39 87 -8 35 -25 81 -36 102 -11 22 -30 68 -43 103 -34 89 -81 180
-105 201 -25 22 -37 54 -52 130 -7 33 -22 69 -36 86 -13 16 -24 38 -24 49 0
22 -16 62 -173 421 -64 145 -59 141 -184 141 -56 0 -103 -4 -103 -8z"/>
<path d="M39995 24294 c-11 -2 -44 -9 -73 -15 -29 -6 -65 -21 -80 -33 -15 -13
-46 -26 -69 -29 -99 -12 -301 -166 -398 -302 -71 -100 -132 -236 -153 -345
-17 -84 -18 -118 -11 -290 10 -261 32 -333 168 -533 95 -141 256 -256 473
-338 l113 -43 235 -1 c258 0 275 3 450 68 96 36 246 122 260 148 7 13 13 446
11 712 l-1 47 -100 0 -100 0 0 -325 c0 -374 11 -335 -112 -398 -106 -53 -211
-72 -393 -71 -172 0 -231 12 -366 74 -47 22 -96 40 -108 40 -11 0 -29 10 -39
22 -16 21 -116 122 -154 156 -10 8 -18 25 -18 38 0 12 -17 48 -39 80 -21 33
-44 83 -51 111 -6 29 -21 65 -33 80 -28 36 -36 178 -14 249 8 27 23 84 32 127
20 92 85 228 150 309 24 32 75 82 111 112 127 105 255 155 450 177 219 25 446
-39 614 -172 27 -21 53 -39 58 -39 15 0 112 108 112 124 0 30 -123 127 -225
176 -168 81 -179 83 -445 86 -129 1 -244 1 -255 -2z"/>
<path d="M43422 24258 c-11 -24 -47 -106 -81 -183 -34 -77 -78 -174 -96 -215
-19 -41 -37 -95 -41 -118 -4 -24 -18 -57 -31 -72 -26 -32 -37 -60 -53 -141 -8
-41 -19 -63 -43 -86 -44 -42 -174 -306 -192 -392 -4 -19 -20 -51 -35 -72 -17
-24 -30 -58 -34 -89 -5 -34 -16 -60 -35 -83 -35 -39 -105 -177 -121 -237 -7
-25 -18 -52 -25 -60 -21 -25 -74 -137 -68 -144 9 -9 196 -7 208 2 6 4 28 48
49 97 22 50 61 138 87 196 27 59 53 128 60 153 20 82 -7 78 562 79 276 0 511
-3 522 -7 24 -8 77 -95 94 -154 10 -35 103 -241 154 -342 11 -22 20 -25 72
-28 75 -4 145 6 145 20 0 16 -99 228 -121 259 -10 14 -25 47 -34 73 -9 26 -27
63 -40 83 -14 20 -25 44 -25 55 0 27 -106 256 -134 289 -13 15 -26 46 -30 68
-4 27 -16 50 -35 67 -22 20 -31 38 -36 77 -9 62 -241 581 -284 635 -11 14 -25
47 -30 73 -12 55 -86 220 -104 231 -7 4 -56 8 -109 8 l-97 0 -19 -42z m170
-298 c16 -36 40 -87 53 -115 45 -96 97 -210 130 -290 18 -44 66 -150 107 -235
80 -167 115 -256 106 -266 -4 -3 -150 -10 -325 -14 -242 -7 -331 -13 -371 -25
-51 -15 -54 -15 -81 5 -16 11 -50 23 -75 26 l-45 7 20 49 c10 27 19 69 19 94
0 38 5 50 34 77 39 37 54 65 124 232 28 66 73 167 101 224 28 57 51 116 51
131 0 40 20 89 40 100 10 5 26 31 36 56 16 43 19 45 32 28 8 -11 28 -48 44
-84z"/>
<path d="M50525 24290 c-115 -8 -140 -15 -268 -74 -137 -63 -186 -101 -311
-236 -135 -147 -217 -332 -238 -543 -14 -139 1 -303 37 -388 14 -32 25 -65 25
-73 0 -8 23 -61 52 -118 46 -92 64 -115 162 -213 77 -77 126 -117 161 -133 28
-12 61 -29 75 -37 44 -26 129 -64 193 -87 57 -21 80 -22 297 -23 278 0 302 5
488 96 87 43 136 74 165 105 57 59 95 98 140 142 81 79 159 216 193 337 25 89
31 416 10 518 -20 100 -69 214 -112 262 -19 21 -34 47 -34 58 0 49 -152 207
-240 249 -25 12 -55 31 -67 43 -33 32 -218 103 -299 115 -77 11 -262 11 -429
0z m395 -185 c118 -31 212 -78 310 -153 116 -89 169 -146 185 -198 7 -25 24
-59 38 -77 40 -53 71 -243 63 -387 -3 -63 -13 -144 -21 -179 -23 -94 -97 -230
-169 -308 -34 -37 -72 -83 -85 -100 -12 -18 -27 -33 -33 -33 -6 0 -56 -21
-112 -46 -142 -65 -255 -88 -411 -81 -159 7 -317 39 -359 73 -17 13 -65 51
-107 83 -41 32 -93 80 -115 106 -21 26 -51 60 -66 75 -15 15 -36 51 -47 80
-11 29 -32 70 -48 92 l-27 40 0 221 -1 222 52 105 c85 175 167 272 308 365
172 113 438 154 645 100z"/>
<path d="M53960 24290 c-30 -4 -78 -19 -106 -34 -30 -15 -78 -30 -117 -34 -47
-6 -77 -16 -107 -37 -58 -40 -125 -119 -158 -185 -25 -51 -27 -66 -30 -204 -3
-123 0 -157 14 -195 22 -58 73 -126 127 -170 59 -47 210 -116 314 -141 48 -12
105 -29 127 -37 23 -8 86 -25 141 -38 192 -46 320 -106 412 -194 12 -11 27
-45 34 -76 23 -101 -7 -188 -116 -342 -58 -82 -151 -105 -430 -104 -223 0
-258 5 -306 38 -20 13 -60 30 -87 38 -36 9 -60 23 -82 49 -18 20 -37 36 -43
36 -6 0 -25 14 -42 30 l-31 30 -42 -51 c-23 -29 -42 -55 -42 -60 0 -5 14 -24
31 -43 39 -45 155 -109 244 -135 39 -11 97 -30 130 -42 53 -19 86 -23 270 -26
254 -6 312 4 462 77 134 66 197 127 242 234 17 42 37 102 42 134 13 66 6 166
-14 214 -16 37 -89 126 -169 206 -44 44 -58 52 -90 52 -27 0 -46 8 -71 30 -60
52 -342 130 -471 130 -58 0 -69 3 -99 30 -19 16 -52 33 -75 38 -30 7 -55 24
-93 63 -70 72 -92 124 -93 224 -1 71 2 86 29 133 45 82 109 134 204 166 121
39 355 59 441 36 61 -16 196 -68 259 -99 33 -17 67 -31 75 -31 30 0 53 83 42
146 -6 30 -14 39 -49 54 -23 10 -64 21 -92 25 -27 3 -66 17 -85 30 -22 16 -61
28 -105 35 -78 11 -311 11 -395 0z"/>
<path d="M46225 24018 c3 -150 9 -311 15 -358 5 -47 10 -310 10 -585 0 -434
-2 -509 -16 -565 -22 -85 -14 -137 23 -146 41 -11 880 4 953 16 148 25 357
106 445 174 175 133 263 249 321 418 64 187 70 246 30 311 -28 45 -25 103 6
155 26 42 19 104 -17 157 -15 23 -25 52 -25 73 0 65 -21 110 -83 174 -32 35
-65 77 -73 94 -14 33 -99 124 -115 124 -5 0 -30 21 -57 48 -57 56 -145 101
-218 111 -30 4 -62 15 -72 25 -44 39 -132 46 -645 46 l-487 0 5 -272z m795
112 c243 -35 370 -78 504 -169 39 -26 81 -51 94 -55 13 -4 32 -27 46 -54 25
-48 59 -85 108 -115 20 -13 28 -27 32 -59 2 -24 12 -105 22 -181 28 -225 11
-353 -68 -517 -46 -93 -62 -116 -147 -201 -86 -85 -107 -101 -201 -146 -151
-72 -200 -78 -625 -78 l-350 0 -13 60 c-9 44 -12 223 -12 683 0 343 2 647 5
675 3 29 8 71 11 95 l5 42 52 1 c29 0 68 6 87 13 42 16 351 20 450 6z"/>
</g>
</svg>
